<?xml version="1.0" standalone="no"?>
<!DOCTYPE svg PUBLIC "-//W3C//DTD SVG 20010904//EN"
 "http://www.w3.org/TR/2001/REC-SVG-20010904/DTD/svg10.dtd">
<svg version="1.0" xmlns="http://www.w3.org/2000/svg"
 width="533.000000pt" height="283.000000pt" viewBox="0 0 533.000000 283.000000"
 preserveAspectRatio="xMidYMid meet">

<g transform="translate(0.000000,283.000000) scale(0.100000,-0.100000)"
fill="#000000" stroke="none">
<path d="M0 1415 l0 -1415 2665 0 2665 0 0 1415 0 1415 -2665 0 -2665 0 0
-1415z m4466 491 c70 -22 167 -88 209 -143 129 -169 106 -422 -52 -574 -103
-100 -193 -134 -337 -127 -76 3 -102 9 -159 36 -161 75 -266 238 -267 412 0
248 205 429 470 416 47 -2 108 -12 136 -20z m-1299 -19 c29 -16 54 -41 79 -83
10 -18 15 -15 62 28 71 67 109 80 213 76 75 -3 92 -7 135 -33 57 -36 100 -100
111 -165 5 -25 7 -181 5 -347 l-2 -303 -185 0 -185 0 0 203 c0 213 -3 227 -45
227 -42 0 -45 -14 -45 -227 l0 -203 -185 0 -185 0 -1 178 c-1 97 -3 187 -4
199 -7 66 -78 70 -90 6 -2 -10 -4 -100 -4 -200 l-1 -183 -195 0 -195 0 0 418
0 417 142 -2 c79 -2 148 -3 155 -3 8 0 13 -25 15 -77 l3 -76 37 56 c50 75 109
109 202 117 79 6 116 1 163 -23z m-1747 -130 l0 -143 -122 -99 -123 -100 123
-3 122 -3 0 -169 0 -170 -420 0 -420 0 0 120 0 120 106 130 105 130 -105 0
-106 0 0 165 0 165 420 0 420 0 0 -143z m472 -33 c3 -159 5 -177 22 -189 13
-10 24 -11 37 -4 17 9 19 24 19 189 l0 180 206 0 205 0 -3 -337 c-3 -320 -4
-341 -25 -391 -48 -119 -159 -222 -277 -258 -68 -20 -291 -18 -451 4 l-120 17
-3 169 c-2 158 -1 168 15 161 90 -34 243 -47 319 -26 38 10 124 73 124 91 0 4
-29 -3 -64 -16 -35 -13 -102 -28 -148 -35 -135 -19 -199 11 -232 108 -13 37
-16 94 -16 280 l0 233 194 0 195 0 3 -176z"/>
<path d="M4251 1454 c-12 -15 -21 -37 -21 -49 0 -12 9 -34 21 -49 16 -20 29
-26 59 -26 30 0 43 6 59 26 12 15 21 37 21 49 0 12 -9 34 -21 49 -16 20 -29
26 -59 26 -30 0 -43 -6 -59 -26z"/>
</g>
</svg>
